Coordinates
version=1
nRows=31
nColumns=38
inDegrees=no

Units are S.I. units (second, meters, Newtons, ...)
If the header above contains a line with 'inDegrees', this indicates whether rotational values are in degrees (yes) or radians (no).

endheader
time	pelvis_tilt	pelvis_list	pelvis_rotation	pelvis_tx	pelvis_ty	pelvis_tz	hip_flexion_r	hip_adduction_r	hip_rotation_r	knee_angle_r	ankle_angle_r	subtalar_angle_r	mtp_angle_r	hip_flexion_l	hip_adduction_l	hip_rotation_l	knee_angle_l	ankle_angle_l	subtalar_angle_l	mtp_angle_l	lumbar_extension	lumbar_bending	lumbar_rotation	arm_flex_r	arm_add_r	arm_rot_r	elbow_flex_r	pro_sup_r	wrist_flex_r	wrist_dev_r	arm_flex_l	arm_add_l	arm_rot_l	elbow_flex_l	pro_sup_l	wrist_flex_l	wrist_dev_l
35	2.94499	1.53365	-1.34985	0.69144	-0.156911	0.941027	-0.0947162	-0.100418	-0.181935	0	-0.0861693	0	0	-0.12337	-0.112916	-0.390511	0	-0.0720828	0	0	-0.283016	-0.0111172	0.0885693	0.333764	-0.230071	0.762844	0.216292	0.899153	0	0	0.358663	-0.219047	0.423069	0.350429	0.987728	0	0
35.01	2.93468	1.53443	-1.34168	0.69161	-0.156559	0.940861	-0.0940002	-0.100627	-0.179696	0	-0.0856142	0	0	-0.123723	-0.112987	-0.391665	0	-0.0719057	0	0	-0.28024	-0.0108391	0.0888477	0.333985	-0.229004	0.753267	0.213732	0.914251	0	0	0.358329	-0.21383	0.381476	0.340479	1.04948	0	0
35.02	2.9271	1.53448	-1.33565	0.691742	-0.156168	0.940708	-0.0943934	-0.100831	-0.177319	0	-0.0850356	0	0	-0.124879	-0.113276	-0.39209	0	-0.0713358	0	0	-0.278069	-0.0105354	0.0889169	0.333414	-0.229523	0.755629	0.214548	0.912042	0	0	0.356626	-0.215594	0.384947	0.340913	1.04411	0	0
35.03	2.91946	1.53382	-1.32891	0.691818	-0.155813	0.94062	-0.0957797	-0.100833	-0.175202	0	-0.0844434	0	0	-0.126644	-0.113916	-0.391919	0	-0.0706847	0	0	-0.276842	-0.00998335	0.0884332	0.33292	-0.229581	0.757458	0.215059	0.910406	0	0	0.355231	-0.217023	0.388198	0.340907	1.03916	0	0
35.04	2.91552	1.53247	-1.32512	0.691817	-0.155449	0.940602	-0.0980889	-0.100717	-0.173877	0	-0.0838852	0	0	-0.128846	-0.114695	-0.391187	0	-0.0701106	0	0	-0.27671	-0.00925316	0.0873458	0.332568	-0.229334	0.758816	0.215518	0.909304	0	0	0.354232	-0.21784	0.391018	0.340288	1.03491	0	0
35.05	2.91356	1.53097	-1.32297	0.691774	-0.155142	0.940587	-0.100607	-0.100557	-0.172933	0	-0.0833857	0	0	-0.131052	-0.11543	-0.390048	0	-0.0694633	0	0	-0.277114	-0.0084733	0.0860186	0.332258	-0.228813	0.759866	0.215927	0.908622	0	0	0.353325	-0.218233	0.393441	0.339742	1.03157	0	0
35.06	2.91371	1.52989	-1.32299	0.691757	-0.154928	0.940496	-0.10243	-0.100501	-0.172223	0	-0.0831217	0	0	-0.132657	-0.115919	-0.389366	0	-0.0683522	0	0	-0.277413	-0.00813888	0.0851729	0.331654	-0.228298	0.7615	0.216788	0.906809	0	0	0.351422	-0.224406	0.433592	0.348253	0.970756	0	0
35.07	2.86084	1.53344	-1.2718	0.692125	-0.156645	0.940187	-0.0938508	-0.0989548	-0.17273	0	-0.07833	0	0	-0.125017	-0.117361	-0.391932	0	-0.0619453	0	0	-0.281863	-0.00791155	0.0853115	0.341781	-0.227876	0.76366	0.218307	0.90729	0	0	0.359112	-0.22585	0.437743	0.349995	0.96568	0	0
35.08	2.91378	1.52731	-1.32266	0.691736	-0.154648	0.940428	-0.106029	-0.0999936	-0.17158	0	-0.0824058	0	0	-0.135799	-0.116819	-0.388551	0	-0.0660152	0	0	-0.280332	-0.00694594	0.0823894	0.332512	-0.225608	0.761743	0.216328	0.907991	0	0	0.35113	-0.218162	0.395875	0.339067	1.02528	0	0
35.09	2.92629	1.52529	-1.3348	0.691742	-0.154578	0.940497	-0.108496	-0.100029	-0.172068	0	-0.0819861	0	0	-0.138023	-0.116838	-0.388525	0	-0.0652927	0	0	-0.283179	-0.0070979	0.0817334	0.332626	-0.224517	0.761953	0.216656	0.907545	0	0	0.349732	-0.225805	0.444989	0.350723	0.952448	0	0
35.1	2.89568	1.52825	-1.30591	0.692072	-0.156441	0.940341	-0.100243	-0.0987804	-0.173624	0	-0.0770916	0	0	-0.130851	-0.117639	-0.391748	0	-0.0599061	0	0	-0.289591	-0.00752342	0.0820715	0.34319	-0.22442	0.767346	0.218911	0.908809	0	0	0.357834	-0.228495	0.454045	0.354418	0.944489	0	0
35.11	2.93547	1.52344	-1.34367	0.691774	-0.154519	0.940509	-0.110075	-0.0997079	-0.173796	0	-0.0809366	0	0	-0.139408	-0.116837	-0.389899	0	-0.063585	0	0	-0.287841	-0.00700257	0.0792903	0.334329	-0.223896	0.775576	0.219491	0.91462	0	0	0.347425	-0.231106	0.463559	0.361168	0.937979	0	0
35.12	2.82307	1.54004	-1.23277	0.691953	-0.154704	0.938825	-0.0886528	-0.0997813	-0.180379	0	-0.0709311	0	0	-0.118423	-0.116124	-0.403293	0	-0.051135	0	0	-0.272021	-0.0079934	0.0778405	0.332728	-0.228801	0.800966	0.234842	0.933696	0	0	0.33229	-0.245825	0.474841	0.406859	0.939027	0	0
35.13	2.94213	1.52059	-1.35021	0.691782	-0.154553	0.940789	-0.112208	-0.0991044	-0.174665	0	-0.0802764	0	0	-0.141449	-0.117118	-0.390648	0	-0.0628244	0	0	-0.294516	-0.00665825	0.0786367	0.336644	-0.222657	0.776725	0.219425	0.914825	0	0	0.349584	-0.231155	0.463735	0.360883	0.938255	0	0
35.14	2.94882	1.51802	-1.35687	0.691733	-0.154565	0.941104	-0.114577	-0.098848	-0.174447	0	-0.0801107	0	0	-0.143777	-0.117364	-0.390139	0	-0.0625772	0	0	-0.299285	-0.00644269	0.079266	0.337896	-0.221261	0.767254	0.217241	0.908804	0	0	0.353984	-0.227367	0.453263	0.351391	0.944878	0	0
35.15	2.9499	1.51802	-1.35928	0.691839	-0.154477	0.941174	-0.113668	-0.0989375	-0.173399	0	-0.0798923	0	0	-0.143595	-0.117302	-0.391609	0	-0.0617543	0	0	-0.30096	-0.00665346	0.080331	0.338784	-0.221795	0.774874	0.21836	0.890314	0	0	0.356811	-0.219061	0.402027	0.338213	1.01587	0	0
35.16	2.94817	1.51835	-1.35873	0.69194	-0.154359	0.941204	-0.112373	-0.0989874	-0.172843	0	-0.0792113	0	0	-0.142914	-0.117375	-0.392418	0	-0.0607426	0	0	-0.301992	-0.00702148	0.0819019	0.339316	-0.222233	0.777148	0.218609	0.888808	0	0	0.357942	-0.219446	0.40364	0.33832	1.01478	0	0
35.17	2.94398	1.51887	-1.35557	0.691983	-0.154267	0.94125	-0.110954	-0.0989892	-0.172363	0	-0.0784755	0	0	-0.141948	-0.117536	-0.39243	0	-0.0596843	0	0	-0.302719	-0.00720138	0.0833825	0.339775	-0.222953	0.778938	0.219004	0.887639	0	0	0.359089	-0.219741	0.405178	0.338333	1.01377	0	0
35.18	2.943	1.5195	-1.35556	0.692002	-0.154114	0.941323	-0.109457	-0.0992116	-0.172054	0	-0.077898	0	0	-0.14077	-0.117504	-0.392632	0	-0.0585926	0	0	-0.303338	-0.00756133	0.0847523	0.340224	-0.223733	0.780188	0.219471	0.886872	0	0	0.360341	-0.219935	0.406484	0.337878	1.01285	0	0
35.19	2.94361	1.52052	-1.3571	0.692017	-0.154031	0.941358	-0.107615	-0.099676	-0.171484	0	-0.0774045	0	0	-0.139171	-0.117375	-0.392808	0	-0.0576816	0	0	-0.303356	-0.0081602	0.0861106	0.340494	-0.224368	0.780943	0.219769	0.886579	0	0	0.36132	-0.220298	0.407429	0.337737	1.01222	0	0
35.2	2.94337	1.52164	-1.35755	0.69202	-0.153908	0.941374	-0.10576	-0.100108	-0.170704	0	-0.0770534	0	0	-0.137313	-0.117279	-0.39263	0	-0.0567757	0	0	-0.303084	-0.00869899	0.0872143	0.340737	-0.22488	0.781378	0.219868	0.886688	0	0	0.362133	-0.220781	0.408391	0.338004	1.01205	0	0
35.21	2.94041	1.52303	-1.35516	0.69198	-0.153816	0.941367	-0.10371	-0.100401	-0.170053	0	-0.0766468	0	0	-0.135134	-0.117206	-0.392159	0	-0.0552959	0	0	-0.302377	-0.00911921	0.0882153	0.340897	-0.225327	0.781557	0.219876	0.887134	0	0	0.362839	-0.221254	0.409405	0.338479	1.01219	0	0
35.22	2.94167	1.52448	-1.35693	0.691919	-0.1537	0.941353	-0.101575	-0.100934	-0.16975	0	-0.0764643	0	0	-0.132883	-0.116791	-0.391903	0	-0.0540004	0	0	-0.301584	-0.00969713	0.0889801	0.341082	-0.225667	0.781454	0.219666	0.887738	0	0	0.363432	-0.221642	0.410161	0.338996	1.0123	0	0
35.23	2.96187	1.52434	-1.37543	0.691469	-0.152651	0.941315	-0.104186	-0.10182	-0.171047	0	-0.0773033	0	0	-0.13327	-0.11608	-0.392488	0	-0.0533682	0	0	-0.297683	-0.0105341	0.0889372	0.338253	-0.225718	0.780242	0.218754	0.888401	0	0	0.361929	-0.221727	0.410207	0.338929	1.01236	0	0
35.24	2.95236	1.52713	-1.36764	0.691735	-0.153706	0.941362	-0.0982372	-0.102233	-0.170477	0	-0.0757296	0	0	-0.128573	-0.115786	-0.392408	0	-0.051728	0	0	-0.299899	-0.0110521	0.0893078	0.340949	-0.22574	0.779685	0.218793	0.889214	0	0	0.364135	-0.222175	0.410612	0.339774	1.01243	0	0
35.25	2.95438	1.52861	-1.37006	0.691695	-0.153639	0.941366	-0.0954425	-0.102604	-0.170477	0	-0.0747728	0	0	-0.123485	-0.11642	-0.394401	0.00509936	-0.0482272	0	0	-0.300135	-0.0116691	0.0895459	0.34225	-0.225624	0.778611	0.218632	0.890135	0	0	0.365202	-0.222386	0.410442	0.340282	1.01227	0	0
35.26	2.96343	1.52916	-1.37868	0.691653	-0.153704	0.941414	-0.0942543	-0.103013	-0.171116	0	-0.0741643	0	0	-0.117126	-0.118153	-0.397867	0.0159759	-0.0436541	0	0	-0.300889	-0.0123504	0.0892553	0.342771	-0.225431	0.777145	0.218576	0.8909	0	0	0.366001	-0.222407	0.409937	0.340563	1.01181	0	0
35.27	2.97049	1.52941	-1.38523	0.691583	-0.153799	0.941492	-0.0933072	-0.103262	-0.171915	0	-0.0733889	0	0	-0.111012	-0.120105	-0.401396	0.0269974	-0.0388427	0	0	-0.302098	-0.0128386	0.0888172	0.343366	-0.225333	0.77564	0.218656	0.891527	0	0	0.366702	-0.22233	0.409265	0.340919	1.01129	0	0
35.28	2.97691	1.52956	-1.39118	0.691529	-0.153867	0.941573	-0.0922898	-0.103509	-0.172729	0	-0.0724208	0	0	-0.104595	-0.122331	-0.405428	0.0387763	-0.0339912	0	0	-0.303548	-0.0132793	0.0883431	0.344159	-0.225238	0.774464	0.218696	0.892201	0	0	0.367334	-0.222198	0.408584	0.341335	1.01074	0	0
35.29	2.98157	1.52974	-1.39516	0.691462	-0.154044	0.941631	-0.0911882	-0.103617	-0.173773	0	-0.0710491	0	0	-0.0975254	-0.125034	-0.40927	0.0517744	-0.0286203	0	0	-0.305165	-0.0136594	0.087613	0.345194	-0.22497	0.77373	0.218463	0.89278	0	0	0.368036	-0.222122	0.408045	0.341673	1.01003	0	0
35.3	2.98186	1.5297	-1.39435	0.691335	-0.154213	0.941659	-0.0901802	-0.103484	-0.174916	0	-0.0694379	0	0	-0.0898555	-0.128343	-0.412859	0.0661414	-0.0224849	0	0	-0.307282	-0.0137153	0.0864466	0.346525	-0.224776	0.773159	0.218304	0.89321	0	0	0.368795	-0.222098	0.407445	0.342289	1.00913	0	0
